HIERARCHY
ROOT hips
{
  OFFSET 0 11.86390953 0.3628582958
  CHANNELS 6 Xposition Yposition Zposition Yrotation Xrotation Zrotation
  JOINT spine
  {
    OFFSET 0 0.05383551117999996 0
    CHANNELS 3 Yrotation Xrotation Zrotation
    JOINT chest
    {
      OFFSET 0 0.6394558760401424 0
      CHANNELS 3 Yrotation Xrotation Zrotation
      JOINT neck
      {
        OFFSET 0 2.720089088562982 0
        CHANNELS 3 Yrotation Xrotation Zrotation
        JOINT head
        {
          OFFSET 0 0.37880844870545777 0
          CHANNELS 3 Yrotation Xrotation Zrotation
          JOINT rightEye
          {
            OFFSET -0.42867780714 0.7547055649100001 0.7381831347
            CHANNELS 3 Yrotation Xrotation Zrotation
            End Site
            {
              OFFSET -0.42867780714 0.7547055649100001 0.7381831347
            }
          }
          JOINT leftEye
          {
            OFFSET 0.428676479 0.7547055559999993 0.7381844503
            CHANNELS 3 Yrotation Xrotation Zrotation
            End Site
            {
              OFFSET 0.428676479 0.7547055559999993 0.7381844503
            }
          }
          JOINT jaw
          {
            OFFSET -0.18933892286100001 1.5626303011000007 1.137441874206
            CHANNELS 3 Yrotation Xrotation Zrotation
            End Site
            {
              OFFSET -0.18933892286100001 1.5626303011000007 1.137441874206
            }
          }
        }
      }
      JOINT rightShoulder
      {
        OFFSET -0.6795351508 2.0665205 0
        CHANNELS 3 Yrotation Xrotation Zrotation
        JOINT rightUpperArm
        {
          OFFSET -0.7287400483531672 0 0
          CHANNELS 3 Yrotation Xrotation Zrotation
          JOINT rightLowerArm
          {
            OFFSET -1.9872982039174532 0 0
            CHANNELS 3 Yrotation Xrotation Zrotation
            JOINT rightHand
            {
              OFFSET -2.6451847532219275 0 0
              CHANNELS 3 Yrotation Xrotation Zrotation
              JOINT rightLittleProximal
              {
                OFFSET -0.8008804099999995 -0.09592044000000044 -0.26183688629999996
                CHANNELS 3 Yrotation Xrotation Zrotation
                JOINT rightLittleIntermediate
                {
                  OFFSET -0.2473955153999997 -0.02541697026000067 0.002370178700999967
                  CHANNELS 3 Yrotation Xrotation Zrotation
                  JOINT rightLittleDistal
                  {
                    OFFSET -0.163687229200001 -0.015790700860001117 -0.0004274845300000635
                    CHANNELS 3 Yrotation Xrotation Zrotation
                    End Site
                    {
                      OFFSET -0.163687229200001 -0.015790700860001117 -0.0004274845300000635
                    }
                  }
                }
              }
              JOINT rightRingProximal
              {
                OFFSET -0.8393382799999985 -0.06223833561000025 -0.09213143500000005
                CHANNELS 3 Yrotation Xrotation Zrotation
                JOINT rightRingIntermediate
                {
                  OFFSET -0.3284497260000011 -0.03264224524000103 0.009408593183000052
                  CHANNELS 3 Yrotation Xrotation Zrotation
                  JOINT rightRingDistal
                  {
                    OFFSET -0.19447660429999902 -0.021730899850000318 0.003074347969000052
                    CHANNELS 3 Yrotation Xrotation Zrotation
                    End Site
                    {
                      OFFSET -0.19447660429999902 -0.021730899850000318 0.003074347969000052
                    }
                  }
                }
              }
              JOINT rightMiddleProximal
              {
                OFFSET -0.8473005199999989 -0.06735503500000095 0.10541820299999995
                CHANNELS 3 Yrotation Xrotation Zrotation
                JOINT rightMiddleIntermediate
                {
                  OFFSET -0.3450455799999995 -0.02481901642000084 0.019012570390000032
                  CHANNELS 3 Yrotation Xrotation Zrotation
                  JOINT rightMiddleDistal
                  {
                    OFFSET -0.23542332000000088 -0.025003910029999243 0.0075583457949999905
                    CHANNELS 3 Yrotation Xrotation Zrotation
                    End Site
                    {
                      OFFSET -0.23542332000000088 -0.025003910029999243 0.0075583457949999905
                    }
                  }
                }
              }
              JOINT rightIndexProximal
              {
                OFFSET -0.8008568281999987 -0.09897839600000169 0.29462796
                CHANNELS 3 Yrotation Xrotation Zrotation
                JOINT rightIndexIntermediate
                {
                  OFFSET -0.30524754480000016 -0.024634122809999992 0.02743375304999998
                  CHANNELS 3 Yrotation Xrotation Zrotation
                  JOINT rightIndexDistal
                  {
                    OFFSET -0.23067378950000017 -0.016876459159999913 0.008484125099999983
                    CHANNELS 3 Yrotation Xrotation Zrotation
                    End Site
                    {
                      OFFSET -0.23067378950000017 -0.016876459159999913 0.008484125099999983
                    }
                  }
                }
              }
              JOINT rightThumbProximal
              {
                OFFSET -0.25574064999999935 -0.12833189930000155 0.22385698609999993
                CHANNELS 3 Yrotation Xrotation Zrotation
                JOINT rightThumbIntermediate
                {
                  OFFSET -0.22791743260000086 -0.07103586192999978 0.27385039
                  CHANNELS 3 Yrotation Xrotation Zrotation
                  JOINT rightThumbDistal
                  {
                    OFFSET -0.13610267659999975 -0.03369390969999997 0.14246511509999996
                    CHANNELS 3 Yrotation Xrotation Zrotation
                    End Site
                    {
                      OFFSET -0.13610267659999975 -0.03369390969999997 0.14246511509999996
                    }
                  }
                }
              }
            }
          }
        }
      }
      JOINT leftShoulder
      {
        OFFSET 0.6795338396 2.0665205 0
        CHANNELS 3 Yrotation Xrotation Zrotation
        JOINT leftUpperArm
        {
          OFFSET 0.7287383950230443 0 0
          CHANNELS 3 Yrotation Xrotation Zrotation
          JOINT leftLowerArm
          {
            OFFSET 1.9872997282019604 0 0
            CHANNELS 3 Yrotation Xrotation Zrotation
            JOINT leftHand
            {
              OFFSET 2.6451820781302327 0 0
              CHANNELS 3 Yrotation Xrotation Zrotation
              JOINT leftLittleProximal
              {
                OFFSET 0.8008804099999995 -0.09592306899999814 -0.2618342639000001
                CHANNELS 3 Yrotation Xrotation Zrotation
                JOINT leftLittleIntermediate
                {
                  OFFSET 0.2473981400000007 -0.02542352681000093 0.0023609995859999455
                  CHANNELS 3 Yrotation Xrotation Zrotation
                  JOINT leftLittleDistal
                  {
                    OFFSET 0.1636846068000002 -0.015794634789999318 -0.00043272972159996703
                    CHANNELS 3 Yrotation Xrotation Zrotation
                    End Site
                    {
                      OFFSET 0.1636846068000002 -0.015794634789999318 -0.00043272972159996703
                    }
                  }
                }
              }
              JOINT leftRingProximal
              {
                OFFSET 0.8393409199999996 -0.062242267999998324 -0.0921281570000001
                CHANNELS 3 Yrotation Xrotation Zrotation
                JOINT leftRingIntermediate
                {
                  OFFSET 0.3284471036000003 -0.03264224524000103 0.009405970574000042
                  CHANNELS 3 Yrotation Xrotation Zrotation
                  JOINT leftRingDistal
                  {
                    OFFSET 0.1944779099999996 -0.021732211159998904 0.003073036670000001
                    CHANNELS 3 Yrotation Xrotation Zrotation
                    End Site
                    {
                      OFFSET 0.1944779099999996 -0.021732211159998904 0.003073036670000001
                    }
                  }
                }
              }
              JOINT leftMiddleProximal
              {
                OFFSET 0.8473005200000001 -0.06736028199999788 0.1054214809999999
                CHANNELS 3 Yrotation Xrotation Zrotation
                JOINT leftMiddleIntermediate
                {
                  OFFSET 0.3450455799999995 -0.024824261000000014 0.019013225990000007
                  CHANNELS 3 Yrotation Xrotation Zrotation
                  JOINT leftMiddleDistal
                  {
                    OFFSET 0.2354259489999998 -0.025005222000000327 0.0075590014499999705
                    CHANNELS 3 Yrotation Xrotation Zrotation
                    End Site
                    {
                      OFFSET 0.2354259489999998 -0.025005222000000327 0.0075590014499999705
                    }
                  }
                }
              }
              JOINT leftIndexProximal
              {
                OFFSET 0.8008594516999996 -0.09898495199999946 0.29463124239999994
                CHANNELS 3 Yrotation Xrotation Zrotation
                JOINT leftIndexIntermediate
                {
                  OFFSET 0.30524754480000016 -0.024632811499998963 0.02743047472
                  CHANNELS 3 Yrotation Xrotation Zrotation
                  JOINT leftIndexDistal
                  {
                    OFFSET 0.23067378950000017 -0.016876459159999913 0.008481502700000004
                    CHANNELS 3 Yrotation Xrotation Zrotation
                    End Site
                    {
                      OFFSET 0.23067378950000017 -0.016876459159999913 0.008481502700000004
                    }
                  }
                }
              }
              JOINT leftThumbProximal
              {
                OFFSET 0.25574326469999953 -0.12833321050000013 0.22385764169999997
                CHANNELS 3 Yrotation Xrotation Zrotation
                JOINT leftThumbIntermediate
                {
                  OFFSET 0.22804987480000094 -0.07138466829999968 0.273648441
                  CHANNELS 3 Yrotation Xrotation Zrotation
                  JOINT leftThumbDistal
                  {
                    OFFSET 0.13614857189999907 -0.033867001519998885 0.14238119169999996
                    CHANNELS 3 Yrotation Xrotation Zrotation
                    End Site
                    {
                      OFFSET 0.13614857189999907 -0.033867001519998885 0.14238119169999996
                    }
                  }
                }
              }
            }
          }
        }
      }
    }
  }
  JOINT rightUpperLeg
  {
    OFFSET -0.9749898906000001 -1.8495733739999998 0
    CHANNELS 3 Yrotation Xrotation Zrotation
    JOINT rightLowerLeg
    {
      OFFSET 0 -4.1566544686813165 0
      CHANNELS 3 Yrotation Xrotation Zrotation
      JOINT rightFoot
      {
        OFFSET 0.14539718599999998 -4.225553926 -0.3666210900000001
        CHANNELS 3 Yrotation Xrotation Zrotation
        JOINT rightToes
        {
          OFFSET 0.1706738473 -0.9584117400000015 1.0093348617
          CHANNELS 3 Yrotation Xrotation Zrotation
          End Site
          {
            OFFSET 0.1706738473 -0.9584117400000015 1.0093348617
          }
        }
      }
    }
  }
  JOINT leftUpperLeg
  {
    OFFSET 0.9749898906000001 -1.8495733739999998 0
    CHANNELS 3 Yrotation Xrotation Zrotation
    JOINT leftLowerLeg
    {
      OFFSET 0 -4.156653488267941 0
      CHANNELS 3 Yrotation Xrotation Zrotation
      JOINT leftFoot
      {
        OFFSET -0.14537357999999995 -4.225555399999999 -0.36661124279999996
        CHANNELS 3 Yrotation Xrotation Zrotation
        JOINT leftToes
        {
          OFFSET -0.17066467000000002 -0.9584157000000019 1.0093348617
          CHANNELS 3 Yrotation Xrotation Zrotation
          End Site
          {
            OFFSET -0.17066467000000002 -0.9584157000000019 1.0093348617
          }
        }
      }
    }
  }
}
MOTION
Frames: 4
Frame Time: 0.03333333333333333
0.01689867116510868 -0.2762172692578133 0.06938416510820389 -4.277817289585537 -6.933083918372428 -3.776769600541353 1.7038319333395928 3.3303486902933286 2.6581958815707853 1.2997863237437035 2.41988314740577 2.69928312257569 0.4377621729333177 5.732419699538729 -1.9332925443261841 6.669611304010031 -19.071750027293405 -9.469541935779882 0 0 0 0 0 0 0 0 0 14.443443449135055 1.6498047818383434 11.98866488998809 30.758227777153582 9.640002476878387 66.85789575826009 6.426996312294422 0.004644124682362304 -0.08284657056119078 -0.6635871787765252 -20.309943264485348 7.6708847912240055 -4.540979477288833 0.6342971928589529 25.77939000930584 -1.0902726710260364 0.13457217931457757 17.500781911925216 -1.1820434825244983 0.13512821428194657 16.60097221845947 -2.7605710514202912 -0.030458306228472825 20.15659194128342 -1.422397876854733 0.25999273669788464 20.86387471218279 -1.2122105041943958 0.19434370715933338 17.81229507382255 -2.005075054922079 -0.14881307393602303 14.429583307802877 -1.0803495558295488 0.1683671267564662 17.437501945246172 -1.2787582684361007 0.2007230883991995 18.44880733755514 1.5543859476144524 -0.002459442148010118 6.515552360363202 -1.1338784369631607 0.1731222001742522 17.236324550851545 -0.5478940770898142 0.03697896689881422 7.878154715294002 -0.9064663759726793 -1.058513176867244 -4.38527212960992 -29.579531409337235 10.856672432220405 -21.775113961192268 -3.028222107704255 -15.699536591477589 -11.894182589314498 -16.798272403803075 1.4539341595252018 -9.540814933704107 -20.356981910800187 1.832131168905199 -72.6814302542847 -0.8488048885399083 0.0000703334016413935 0.010955862585246867 -1.6247755164407252 -32.818720923697285 -5.98820496780328 5.372029023599363 0.8985278307083148 -28.037472182967058 1.505459031424629 0.29962156740123075 -17.47588923637285 1.446145492595319 0.27070517621414353 -16.576299376289334 3.818784764945522 0.24106215275185608 -23.122363136375938 1.9160785852883149 0.37193402671175846 -21.95252948274523 1.6595575157473155 0.2763808879767118 -18.893204087559628 2.6208723509980763 -0.05646505627639748 -15.579024073487778 1.5400057069035058 0.2357247672808767 -17.45743946103414 1.6256300376212247 0.26422789850682377 -18.464864234785843 -0.9662757117189372 0.0806441035078159 -7.742459301445699 1.5391430721758002 0.23499924032314837 -17.339361432160327 0.7053083018010751 0.04973402868690725 -7.996328572234129 2.7602949738297786 -0.43670467256083395 4.842032722565478 25.1799816044659 10.511307303513815 21.542145207302926 3.005019203978332 -13.925717960453984 8.12916489030166 -10.342303477928352 -1.561386129923565 3.348937241648077 -10.167413548736699 19.24245016669055 -6.584921630675975 -3.549889690452351 -10.114566232449667 5.006025975541966 0.00000455686711771351 -7.694842242107917 -0.0000019358071278220974 15.709810617836167 -12.955425977730382 8.711716672880902 1.046395100894861 23.39963739342672 4.890241915682367 -0.48483901916649885 -4.442734900398021 -7.656254242179726 0.000002589956345158517 -5.173851547715468 -0.000003054256130098796
0.018223164603114128 -0.27478961880615316 0.08673112839460373 -4.144010819147833 -7.428244033169161 -3.78059519369689 1.7325868657368917 3.268259460743192 2.676002284921028 1.4221670874175565 2.133988521776109 2.7606023616570243 0.5109021889402858 6.811976777476266 -2.402024628556273 7.6828767082405545 -16.780341745717806 -11.21196637514575 0 0 0 0 0 0 0 0 0 14.329361842691293 1.4453079647574303 13.222782295562677 30.423306930586463 11.09847265860311 66.58807563948662 6.039869283388773 0.00411472248788847 -0.07787912388635515 -0.9974130470520353 -19.75782416552781 8.042466624566918 -4.505448466455317 0.6299184015986927 25.596584374476986 -1.0806172424082863 0.13196749563661458 17.35463398672116 -1.1723606703206668 0.1325104304206424 16.454837850080988 -2.7869842478212568 -0.018805295376195918 20.036285193200133 -1.4242384828048025 0.2606929183572247 20.892655949622267 -1.2140913632701587 0.19496888651979874 17.84108660873756 -1.949012612821228 -0.16083866641330313 14.333465891913606 -1.0785555937299411 0.16783476991637572 17.41011227767108 -1.2769963400704714 0.20012394907730247 18.421739361348084 1.6035370859516997 -0.01708743101195855 6.505766015940943 -1.131126848949535 0.17229071424685805 17.19424657269645 -0.5450337183769867 0.03657571551539161 7.836036219538508 -0.9997018852750826 -1.232850361627193 -4.527212071775813 -29.58294234203767 10.871953097675576 -21.733208733582796 -3.0157426395259477 -15.697871077341384 -11.882600186080326 -16.847497085104102 1.2861837615344043 -10.61417760079208 -19.81999451399465 2.947370552107333 -72.45239582854714 -0.7182110617858416 0.00005847810136172657 0.009284908383628332 -1.7051110118989532 -32.65354649886956 -5.869767675118656 5.367474621542032 0.8866543471857421 -27.9739019905049 1.5040182228736299 0.2991015854727563 -17.458782378335464 1.4446848475281795 0.27020376537388924 -16.55920748589309 3.815669146622123 0.23901846751167566 -23.18577444696651 1.9177768162410882 0.3726187943107956 -21.973085594173273 1.6613971556554628 0.27699964096128665 -18.91487260874931 2.449729652060203 -0.10236348589627994 -15.518035435422778 1.5400152017850195 0.23571694984976996 -17.457654396448252 1.625687218040099 0.2642479357201686 -18.465513829879043 -0.9092751922343281 0.1305923428272396 -7.800231672760293 1.5413328142603777 0.23568858831647402 -17.365094872938247 0.7075730907061969 0.050061517705500484 -8.02184621007717 2.930398259050003 -0.6357480568371685 5.067571230174184 25.202203909119167 10.531698464262556 21.471116034571974 3.0044397776443734 -13.949013421790616 8.198949091095786 -10.349378049279231 -0.8558107160596006 3.272220871384876 -10.208799625037598 19.08367479382155 -6.674818450388758 -3.603167754565709 -10.195224750933635 5.122300134630254 -0.000004113663962896818 -7.67631885722291 -0.0000061165509030628425 15.723291770601094 -12.38093088361935 8.758388775834472 1.0565879756110723 23.439885685766985 5.068702348165923 -0.5622527445264855 -4.637421007722056 -7.6260174113656705 0.000006716889586605254 -5.168275911323666 -0.000002697451663590284
0.019555574283003807 -0.26666812832763753 0.09485641121864319 -4.067766990135996 -7.606008658187611 -3.7422245244471184 1.755706682021704 3.209251626253061 2.6604543176944775 1.5152050553061096 1.886625286224242 2.7168525792367664 0.5885792024787786 7.303993437245373 -2.6296270143798965 8.176728092681584 -14.306407119793532 -11.928862038590564 0 0 0 0 0 0 0 0 0 14.255611194915176 1.3359293141896382 13.889804642708015 30.230388329064397 11.978739685177297 66.46422118877952 5.835897581986686 0.00384337838146791 -0.07524711086286247 -1.1813149767180204 -19.48442851758219 8.073739852456649 -4.5180012048937845 0.640370140353118 25.458385984632635 -1.0750412942686085 0.13046765153066742 17.27058699471961 -1.166797002296275 0.1310233929202547 16.37079566454355 -2.7520759304700153 -0.030853203276815382 19.998809797357662 -1.424509538080838 0.26079246405908374 20.8968965578679 -1.2143578614442379 0.19505901352237937 17.845329422335247 -1.9467595046284873 -0.15925256223402237 14.243453571362455 -1.0798306784235963 0.1682279743920372 17.42957873917321 -1.2782549691826681 0.2005400061904765 18.4411677401049 1.6486634270442417 -0.024463915743683676 6.465986681318067 -1.1382148277437047 0.1744761313236518 17.30255224092388 -0.5523774303037797 0.03759885672307551 7.9443618149258715 -0.9290581990208311 -1.0711666867083993 -4.461624360065265 -29.58758914956264 10.867774027027416 -21.742945327578827 -3.019982828749583 -15.703463640342633 -11.888884000953906 -16.749240841415688 1.1891532165019456 -11.218054055612921 -19.515220299713167 3.689010526152621 -72.2747159669908 -0.8014409249329253 0.00007475032148707802 0.010356882863457111 -2.0801436390951724 -32.84457390860454 -5.6097827249897 5.3085337755063415 0.8326760613346744 -27.83098178857556 1.502258882992379 0.2984709316578267 -17.437877784973768 1.4429125846767092 0.26959531149799 -16.538289372675624 3.7696577920134793 0.2205191648593377 -23.092614323529602 1.9162998220566383 0.3720275702582911 -21.955311963474287 1.6600410490989426 0.27654318690012086 -18.89884921358677 2.3306738390246 -0.13406436936265023 -15.476438757475282 1.539424353292258 0.23552989179821288 -17.450680121691523 1.625149910628294 0.26407886006077486 -18.459234946679175 -0.9762636162151354 0.08259040257114562 -7.66086948432557 1.5399419247389128 0.23525139915671406 -17.348790629939455 0.7061447315780747 0.04985563478151687 -8.005704195678723 2.8896525219349947 -0.9694048398134733 5.250751345830686 25.264319535943375 10.590110177968146 21.271577215600267 2.9276599867369404 -13.907275553419542 8.208461062320769 -10.350191466560808 -0.41951375373563937 3.2213979040419436 -10.211551954658947 18.661695276253138 -6.690224481317471 -3.6230963100450935 -10.037673578152491 5.133673622307507 0.000006264630503722616 -7.663593059271182 -0.000003666098850084834 15.723606968706706 -11.943603026404903 8.729500742822564 1.0620572258202186 23.0591505939653 5.1048562323341535 -0.5875528955987549 -4.562163496742764 -7.6056432432556145 0.00001179590022038117 -5.163111804790152 -0.000004509376237612842
0.020344262942671776 -0.2626522057812508 0.09688865393400192 -4.026344569975201 -7.650780635958427 -3.718799679985834 1.7663491289220536 3.1828182343379603 2.6475192761220288 1.5573533331645015 1.7781478036057512 2.6806846416713075 0.6351438239510895 7.4610364259359025 -2.7142309165623337 8.36325953051144 -12.914567467454884 -12.151143927742625 0 0 0 0 0 0 0 0 0 14.224964450154436 1.2912497349260266 14.16455717695787 30.12496863423239 12.354262517954934 66.40366833338473 5.768908818474154 0.0037483656307524837 -0.07437753200590483 -1.235615800453454 -19.402221089728755 8.022916998338612 -4.512216573860025 0.6382026476734675 25.28353310353609 -1.07015388114286 0.12916631039051885 17.196557991629614 -1.1618926979574848 0.12972586706220657 16.296752054635235 -2.7135985672358482 -0.04315145505356028 19.906386402162127 -1.42336687278525 0.2603529528490608 20.878913259341044 -1.2131924221761332 0.19467487986094367 17.82730510167489 -1.931114706367431 -0.16174785890786395 14.18482229663868 -1.080001894738909 0.168275745901562 17.432199096204503 -1.2784347210966656 0.20061493862730237 18.443898404751224 1.6966491898695735 -0.026641497328143204 6.3405685029257235 -1.144736661725608 0.1764770659696167 17.402253883560803 -0.5591419045431907 0.03854429451816193 8.044069526347334 -0.935368619185361 -1.0674864948165625 -4.505789017981435 -29.59711104899756 10.88755188528166 -21.687026816306478 -3.003863249298939 -15.69550319728054 -11.898724412864837 -16.67091832161391 1.1458500045085962 -11.483801785228506 -19.384236809357656 4.02379431615387 -72.1547221471002 -0.8834151072616664 0.00010057310510328252 0.011404995030580543 -2.298743522750258 -33.02459552824902 -5.476622805802138 5.275390121343511 0.801679697752933 -27.787842610537812 1.5023123329136034 0.2984821642697742 -17.438553358918124 1.4429778783730696 0.26962748844852524 -16.538951775871077 3.7354609481109726 0.20629180877515396 -23.069261874457737 1.9152314965383836 0.37158325176158274 -21.942384457821415 1.6590716277246356 0.2762095442858529 -18.887457431198186 2.2517141002784915 -0.15760113090539174 -15.543879144776271 1.5383518859370988 0.2352018798679092 -17.438139962551926 1.6241541421005752 0.26374577808361727 -18.447461230001654 -1.0220780930159712 0.03425516497152441 -7.67029518190036 1.5403273295358468 0.2353669530581593 -17.353192198806592 0.7065519395642786 0.04992291617241098 -8.010313406684173 2.882323885052239 -1.17768523064681 5.378179819248977 25.30029511797044 10.62456038745044 21.154783696582708 2.8824689493997537 -13.881052166675495 8.209161500012057 -10.354386306426614 -0.2696968583255904 3.200092588385126 -10.22002074785961 18.469919161688072 -6.695183095989422 -3.6284400879521557 -9.955261857450692 5.10949414490319 0.000014096423137607117 -7.654914717414463 -0.000005488401076673463 15.72733850668063 -11.774209453226263 8.70853938091343 1.0693985845905964 22.852067508476367 5.100386050579879 -0.6192944150098124 -4.500799646945016 -7.597804396845743 0.000003288295220084155 -5.160393893437342 -0.0000013519809222761173
